<svg height="512" viewBox="0 0 60 59" width="512" xmlns="http://www.w3.org/2000/svg"><g id="023---Investing-Money" fill="none"><path id="Shape" d="m54.91 11c-2.42-2.42.44-6.63-2.12-9.19-2.31-2.32-5.64-1.48-7.79.69-.3877236.39003745-.3877236 1.01996255 0 1.41l8.49 8.48c.3900375.3877236 1.0199625.3877236 1.41 0 .3774556-.3848957.3818787-.9997134.01-1.39zm-7.74-7.73c1.37-.95 2.95-1.28 4.18-.07.88.9.47 2.64.47 4.72z" fill="#2980ba"/><path id="Shape" d="m36 59c-.5522847 0-1-.4477153-1-1v-18c0-.5522847.4477153-1 1-1s1 .4477153 1 1v18c0 .5522847-.4477153 1-1 1z" fill="#4c8056"/><path id="Shape" d="m53 59c-.5522847 0-1-.4477153-1-1v-13c0-.5522847.4477153-1 1-1s1 .4477153 1 1v13c0 .5522847-.4477153 1-1 1z" fill="#4c8056"/><path id="Shape" d="m16.46 13.26c-.0300018.0783605-.0703603.1523511-.12.22-.7833098 1.3425748-2.1464635 2.2444937-3.6884403 2.4404246-1.5419768.195931-3.08737488-.3364133-4.1815597-1.4404246-.74661305-.7569504-1.23636725-1.7294624-1.4-2.78-.07500181-.5072425-.07500181-1.0227575 0-1.53.07721121-.51962779.23937627-1.02301517.48-1.49.7078244-1.39676861 2.02912782-2.3812692 3.57-2.66h.38c.9532821-.10298378 1.915907.07425041 2.77.51 1.183724.60115254 2.0797665 1.64840072 2.4905833 2.91086517.4108168 1.26246443.3026753 2.63648273-.3005833 3.81913483z" fill="#f5efca"/><path id="Shape" d="m12 59c-.5522847 0-1-.4477153-1-1v-36c0-.5522847.4477153-1 1-1s1 .4477153 1 1v36c0 .5522847-.4477153 1-1 1z" fill="#4c8056"/><path id="Shape" d="m12 58s-10.7-.4-11-21.5c-.00782751-.1836376.08989922-.3556203.25166523-.4428888.161766-.0872685.35916275-.0744971.50833477.0328888 2.5 1.71 10.24 8.5 10.24 21.91z" fill="#24ae5f"/><path id="Shape" d="m12 58s10.7-.4 11-21.5c.0078275-.1836376-.0898992-.3556203-.2516652-.4428888s-.3591628-.0744971-.5083348.0328888c-2.5 1.71-10.24 8.5-10.24 21.91z" fill="#24ae5f"/><path id="Shape" d="m36 58s6.81-.24 7-12.71c-.0105078-.110816-.0778474-.2082095-.1778135-.2571725s-.2181939-.0424596-.3121865.0171725c-4.2194837 2.9387462-6.6684937 7.8104327-6.51 12.95z" fill="#24ae5f"/><path id="Shape" d="m36 58s-6.81-.24-7-12.71c.0105078-.110816.0778474-.2082095.1778135-.2571725s.2181939-.0424596.3121865.0171725c4.2194837 2.9387462 6.6684937 7.8104327 6.51 12.95z" fill="#24ae5f"/><g fill="#f0c419"><path id="Shape" d="m7.29 12.69c-2.95 1.12-6.29.56-6.29-1.69s3.34-2.81 6.29-1.69c-.38500022 1.0937765-.38500022 2.2862235 0 3.38z"/><path id="Shape" d="m9.87 15.53c-1.3 2.87-4.06 4.84-5.65 3.25s.38-4.35 3.25-5.65c.49569414 1.0553637 1.34463632 1.9043059 2.4 2.4z"/><path id="Shape" d="m12 22c-2.25 0-2.81-3.34-1.69-6.29 1.0945831.3802501 2.2854169.3802501 3.38 0 1.12 2.95.56 6.29-1.69 6.29z"/><path id="Shape" d="m19.78 18.78c-1.59 1.59-4.35-.38-5.65-3.25 1.0553637-.4956941 1.9043059-1.3446363 2.4-2.4 2.87 1.3 4.84 4.06 3.25 5.65z"/><path id="Shape" d="m23 11c0 2.25-3.34 2.81-6.29 1.69.3850002-1.0937765.3850002-2.2862235 0-3.38 2.95-1.12 6.29-.56 6.29 1.69z"/><path id="Shape" d="m16.53 8.87c-.4956941-1.05536368-1.3446363-1.90430586-2.4-2.4 1.3-2.87 4.06-4.84 5.65-3.25s-.38 4.35-3.25 5.65z"/><path id="Shape" d="m13.69 6.29c-1.0937765-.38500022-2.2862235-.38500022-3.38 0-1.12-2.95-.56-6.29 1.69-6.29s2.81 3.34 1.69 6.29z"/><path id="Shape" d="m9.87 6.47c-1.04960838.50385267-1.89614733 1.35039162-2.4 2.4-2.87-1.3-4.84-4.06-3.25-5.65s4.35.38 5.65 3.25z"/></g><path id="Shape" d="m58.41 17.35-8.48 8.48c-.3751365.3755541-.8841815.5865733-1.415.5865733s-1.0398635-.2110192-1.415-.5865733l-7.53-7.53c-1.0293746-1.0182379-2.5286499-1.4007061-3.92-1l-7.65 2.17c18.58-18.57 17.19-17.22 17.74-17.63l12.67 12.68c.3755541.3751365.5865733.8841815.5865733 1.415s-.2110192 1.0398635-.5865733 1.415z" fill="#2fa8cc"/><path id="Shape" d="m31.45 18.63c.0912217-.3455621-.0089145-.7135382-.2626637-.9652243-.2537491-.2516862-.6225304-.3488153-.9673363-.2547757l-3.94 1c-.2395188.083937-.4136226.2925893-.4533133.5432671-.0396906.2506777.06144.5029088.2633133.6567329l3.11 3.11c.1538241.2018733.4060552.3030039.6567329.2633133.2506778-.0396907.4593301-.2137945.5432671-.4533133z" fill="#95a5a5"/><path id="Shape" d="m19 30c-.4062651.0023626-.77358-.2413038-.929371-.6165185-.1557909-.3752147-.0690889-.807391.219371-1.0934815l2-2c.3921222-.3921221 1.0278778-.3921221 1.42 0 .3921221.3921222.3921221 1.0278778 0 1.42-2.18 2.18-2.17 2.29-2.71 2.29z" fill="#2fa8cc"/><path id="Shape" d="m24 31c-.5522847 0-1-.4477153-1-1v-1c0-.5522847.4477153-1 1-1s1 .4477153 1 1v1c0 .5522847-.4477153 1-1 1z" fill="#2fa8cc"/><path id="Shape" d="m19 25h-1c-.5522847 0-1-.4477153-1-1s.4477153-1 1-1h1c.5522847 0 1 .4477153 1 1s-.4477153 1-1 1z" fill="#2fa8cc"/><path id="Shape" d="m36 40c1 0 3-2 3-5v-4c0-.5522847-.4477153-1-1-1h-4c-.5522847 0-1 .4477153-1 1v4c0 3 2 5 3 5z" fill="#f0c419"/><path id="Shape" d="m53 58s5.84-.18 6-9.77c-.0163881-.0905809-.0762511-.1673206-.1601199-.2052613-.0838688-.0379406-.1810285-.032235-.2598801.0152613-3.4929861 2.0971694-5.6156217 5.8859599-5.58 9.96z" fill="#24ae5f"/><path id="Shape" d="m53 58s-5.84-.18-6-9.77c.0163881-.0905809.0762511-.1673206.1601199-.2052613.0838688-.0379406.1810285-.032235.2598801.0152613 3.4929861 2.0971694 5.6156217 5.8859599 5.58 9.96z" fill="#24ae5f"/><path id="Shape" d="m53 45c.67 0 2-2 2-5v-1c0-.55-.3-1-.67-1h-2.66c-.37 0-.67.45-.67 1v1c0 3 1.33 5 2 5z" fill="#f0c419"/><path id="Shape" d="m59 59h-58c-.55228475 0-1-.4477153-1-1s.44771525-1 1-1h58c.5522847 0 1 .4477153 1 1s-.4477153 1-1 1z" fill="#a56a43"/><path id="Shape" d="m47.63 20.29c-.5522847 0-1-.4477153-1-1s.4477153-1 1-1c.7587603-.2372621 1.4348354-.6845117 1.95-1.29.69-.69 1.22-1.6.53-2.3s-1-.5-2.4.62c-1.15.89-3.08 2.4-5 .44-1.49-1.49-.84-3.75.53-5.12 1.0100848-1.15930567 2.5592136-1.69598175 4.07-1.41.4841151.18215252.749427.7034295.6117922 1.2020312-.1376349.4986016-.6327884.8099585-1.1417922.7179688-1.55-.33-3.67 2.19-2.65 3.2.59.6.95.5 2.39-.61 1.15-.9 3.08-2.4 5-.45 1.06 1.06 1.56 3-.53 5.13-1.79 1.78-3.11 1.87-3.36 1.87z" fill="#fff"/><path id="Shape" d="m51.34 19.76c-.55 0-.73-.32-1.76-1.35-.1893127-.1877666-.2957983-.4433625-.2957983-.71s.1064856-.5222334.2957983-.71c.1890965-.1879965.4454436-.2926865.7120832-.2908087.2666396.0018777.5214867.1101676.7079168.3008087l1.06 1.06c.282608.2883039.3641382.7182621.2066917 1.0900106-.1574464.3717486-.522983.6123609-.9266917.6099894z" fill="#fff"/><path id="Shape" d="m43.92 12.33c-.55 0-.74-.31-1.77-1.35-.3397768-.3967603-.3169323-.98819417.0524368-1.35756322.369369-.36936905.9608029-.39221358 1.3575632-.05243678l1.07 1.06c.2813286.2870058.363505.7145455.208621 1.0853946-.1548841.3708491-.5167313.6129438-.918621.6146054z" fill="#fff"/></g></svg>